<?xml version="1.0" encoding="UTF-8"?> <svg xmlns="http://www.w3.org/2000/svg" id="Layer_1" data-name="Layer 1" viewBox="0 0 727 178.21"><defs><style>.cls-1{fill:#f44336;fill-rule:evenodd;}</style></defs><path d="M382.14,121.78c5.72-3.43,9.15-9.78,9.15-18.1,0-12.33-8.45-25.16-26.94-25.16H328.07V170h40c18,0,27.5-10.92,27.5-27.19C395.54,133.6,390.91,125.47,382.14,121.78Zm-38.56-29h20.58c7.24,0,11.56,4.77,11.56,11.12,0,7.31-5,11.12-11.56,11.12H343.58Zm22.55,62.77H343.58V129.34h23c8.58,0,13.54,5.66,13.54,13C380.11,150.5,374.13,155.58,366.13,155.58Zm86.7-20.9c10.42-9.15,15.82-14.42,15.82-27.51,0-17.91-13.15-30.56-30.75-30.56-18.93,0-32.08,12-32.08,30.25h15.75c-.25-8.39,6.48-15.82,16-15.82C446.67,91,453,97.83,453,107c0,4.51-2.1,9.28-8.13,14.68l-39.14,34.88v13.34h63V155.46H429.39ZM538,121.78c5.72-3.43,9.15-9.78,9.15-18.1,0-12.33-8.45-25.16-26.94-25.16H483.92V170h40c18,0,27.51-10.92,27.51-27.19C551.39,133.6,546.75,125.47,538,121.78Zm-38.57-29H520c7.24,0,11.56,4.77,11.56,11.12,0,7.31-5,11.12-11.56,11.12H499.42ZM522,155.58H499.42V129.34h23c8.58,0,13.53,5.66,13.53,13C536,150.5,530,155.58,522,155.58ZM584.47,105a20.85,20.85,0,0,0-6.86,7.37v-11H564.08V170h15.38V135.13c0-7.95,2.79-14.36,9.08-17.79a19.55,19.55,0,0,1,14.17-1.65v-14.3C596.54,100.44,589.56,101.52,584.47,105Zm82.81,7.25c-4.51-9.09-14.23-12.77-26.43-12.77-16.13,0-25.6,7.68-29,19.25l14,4.38c2.29-7,8.83-9.59,15-9.59,9.34,0,13.47,3.68,14,11.56-12,1.78-22.61,3.24-29.86,5.59-10.86,3.75-15.62,10.54-15.62,20.52,0,11.31,8.06,20.71,23,20.71,10.93,0,18.24-3.49,24.08-11.12V170h13.41V127.88C669.89,122,669.7,117.08,667.28,112.26Zm-14.1,36.08c-1.53,4.77-7.31,11.37-17.73,11.37-7.24,0-11.05-3.68-11.05-8.7,0-4.45,3.05-7,8.32-9,4.83-1.65,11.06-2.61,22-4.32C654.64,140.84,654.45,145.23,653.18,148.34ZM687.7,91H703v-14H687.7Zm0,79H703V101.39H687.7ZM758,99.42c-9.91,0-17.41,3.69-22.43,9.6v-7.63H721.91V170h15.5V134.74c0-16.64,8.26-20.9,16.08-20.9,14.61,0,16,14.68,16,23.13v33H785V131.7C785,123.56,783.28,99.42,758,99.42Z" transform="translate(-58 -35.88)"></path><path class="cls-1" d="M143.62,35.88l33.18,1.36h1.47c.12,0,.16,0,.18.1v.24l38.83,18,.36.21a4.45,4.45,0,0,1,.74.59l.56.56,28.54,33.88v.34a.5.5,0,0,0,.2.37l.08.1,0,.21v.33l0,.16a.92.92,0,0,0,.17.22l.08.1.05.2v.34l9,39,.1.5a4.84,4.84,0,0,1-.53,2.74l-.23.49-21.9,35.57-.29.44a4.91,4.91,0,0,1-3.82,1.92h-.54l-33.52-4.4-5,12.87.66,26.77,0,.5a5.1,5.1,0,0,1-3,4.24,3.51,3.51,0,0,1-1.66.34,5.11,5.11,0,0,1-3.26-1.33l-.39-.36-29.53-32.53H118.57c-.19,0-.24-.07-.5-.34l-.12,0a.3.3,0,0,1-.22-.31c-.24,0-.31-.2-.46-.29l-.2,0-.66-.68v-.34L97.16,146.33,64.64,133.12l-.41-.19a4.82,4.82,0,0,1-2.55-3.45l0-.43L58,90.09V87.35a.32.32,0,0,1,.33-.31.33.33,0,0,1,.33-.34.5.5,0,0,1,.2-.37l.08-.1L59,86,94.84,48.76l.19-.17.28-.18a.52.52,0,0,0,.17-.19l0-.14h.33l.25,0,.5-.23.25-.06,45.46-11.86Zm10.12,118.81-19.76,15h22.44l.5,0a5.42,5.42,0,0,1,2.79,1.31l.4.37,14.4,16-10.72-29-.92-.11a20.21,20.21,0,0,1-8.37-3.1Zm82.4-5.54-55.7-3.07a16.5,16.5,0,0,1-6.95,9.77l-.67.46,8.62,24.21v-.21a1.18,1.18,0,0,1,.17-.61l.16-.21,6.78-17.78A4.76,4.76,0,0,1,193,159l34.55,4.48,8.62-14.32-55.7-3.07Zm-89-12.47-23.41-13a16.75,16.75,0,0,1-10.63,4.42l-.92,0h-1.65l-5.27,13.67,15.83,26.65,26.38-20.84-.07-1.4c-.17-1.83-.59-3.52-.59-5.44,0-1,.19-2.05.28-3.07l0-1-23.41-13Zm93.3-35.37-59.2,35v.34l61.2,3.39,4.65-7.81ZM68.13,97l2.68,27.82,26.74,10.06,4.35-11.4-.56-.4a16.5,16.5,0,0,1-6.44-12.44l0-.9v-1Zm97.29-.86-35.83,14,0,1a27.15,27.15,0,0,1-.43,3.08l-.2,1L152,128l.62-.6a19,19,0,0,1,10.5-4.79l.93-.09,5.36-21.92-.61-.42a12.87,12.87,0,0,1-3-3.39Zm64,.95L196.78,91c-1.94,7.57-8.56,13.54-16.53,13.91l-.78,0h-1.66l-5,20.71.57.19a8.78,8.78,0,0,1,2.64,1.76l.45.43,52.9-30.9L196.78,91Zm-56-44-45.28,47.35,34-13.19v-.67l0-.79a17.44,17.44,0,0,1,12.59-16.29l.71-.17ZM96.2,61.71l-25.54,26L97.88,99.59l.47-.67a17.87,17.87,0,0,1,4.47-4.27l.77-.47ZM145,44.49,104.43,55.25l8,36,1,0a19.73,19.73,0,0,1,6.74,1.88l.9.43L166.91,45.5Zm38,5.17,2.32,19.62.78.31a18.31,18.31,0,0,1,10.18,10.34l.28.84,35.41,6.77L212.4,64.2Z" transform="translate(-58 -35.88)"></path></svg> 